<?xml version="1.0" standalone="no"?>
<!DOCTYPE svg PUBLIC "-//W3C//DTD SVG 20010904//EN"
 "http://www.w3.org/TR/2001/REC-SVG-20010904/DTD/svg10.dtd">
<svg version="1.0" xmlns="http://www.w3.org/2000/svg"
 width="450.000000pt" height="406.000000pt" viewBox="0 0 450.000000 406.000000"
 preserveAspectRatio="xMidYMid meet">
<metadata>
Created by potrace 1.10, written by Peter Selinger 2001-2011
</metadata>
<g transform="translate(0.000000,406.000000) scale(0.050000,-0.050000)"
fill="#000000" stroke="none">
<path d="M3727 6779 c-224 -45 -431 -211 -542 -434 l-75 -153 -6 -946 -5 -946
-659 0 -658 0 -54 120 c-248 554 -1055 413 -1103 -193 -48 -588 786 -843 1070
-327 l55 99 674 1 675 0 5 -1355 6 -1355 75 -153 c87 -178 232 -323 410 -411
l115 -56 1840 0 1840 0 132 64 c249 122 428 358 478 629 14 73 19 904 15 2439
l-5 2328 -45 112 c-99 244 -261 411 -489 504 -112 47 -3533 77 -3749 33z
m3679 -347 c98 -48 183 -134 240 -239 l44 -83 0 -2370 0 -2370 -50 -98 c-61
-119 -200 -245 -301 -272 -117 -32 -3445 -35 -3553 -3 -238 69 -353 249 -363
567 l-7 215 960 5 c1085 7 1044 1 1044 158 0 162 27 158 -1053 158 l-947 0 0
400 0 400 948 0 c1024 0 1000 -2 1043 81 41 79 37 113 -20 170 l-49 49 -961 0
-961 0 0 399 0 399 995 6 995 6 114 56 c94 46 209 152 632 585 284 291 522
529 530 529 8 0 14 -103 14 -229 0 -293 91 -393 247 -270 l53 42 0 462 c0 594
57 535 -511 535 -495 0 -498 0 -541 -84 -76 -147 16 -216 291 -216 110 0 201
-6 201 -13 0 -38 -999 -1037 -1070 -1070 -74 -33 -153 -36 -1016 -37 l-936 0
6 915 6 915 56 95 c62 105 161 193 259 228 125 46 3566 26 3661 -21z m-6120
-1999 c204 -87 231 -342 48 -454 -122 -74 -280 -35 -355 87 -124 204 89 459
307 367z"/>
<path d="M6582 3515 l-280 -285 -126 123 c-129 127 -168 145 -258 121 -163
-42 -123 -182 118 -420 288 -282 253 -293 757 240 317 336 337 378 225 471
-94 78 -136 54 -436 -250z"/>
<path d="M6582 2171 l-292 -289 -133 129 c-150 146 -192 157 -279 71 -101
-102 -85 -143 148 -376 280 -279 240 -287 657 128 417 414 458 493 314 594
-85 59 -117 39 -415 -257z"/>
<path d="M995 6351 c-371 -132 -495 -621 -233 -919 353 -401 1007 -162 1006
368 -1 411 -390 688 -773 551z m327 -322 c228 -118 146 -469 -109 -469 -182 0
-286 107 -268 273 21 184 210 283 377 196z"/>
<path d="M1051 3139 c-268 -67 -448 -325 -426 -610 39 -494 658 -703 996 -336
383 416 -19 1083 -570 946z m268 -336 c37 -20 84 -67 104 -104 155 -288 -274
-532 -444 -253 -136 223 109 481 340 357z"/>
</g>
</svg>
